<svg xmlns="http://www.w3.org/2000/svg" viewBox="-2.727269389291332 -3.188503556317831 4.919091442178246 6.68850355631783">
    <path d="M -0.12116352230849063,3.4999999999999996 L -0.10282210831828989,3.4840116204479576 L -0.04790627913439565,3.453390056079308 L -0.015180064172855086,3.399346001715045 L -0.019903785145558146,3.3342047450773644 L -0.04927303873615888,3.2787701917848953 L -0.10254746373333255,3.244185927167328 L -0.166726923365902,3.2417841895686137 L -0.22389290303057097,3.2669734101291987 L -0.276375994744631,3.3034681222912172 L -0.3272981238084881,3.3437313316537125 L -0.38446410347315674,3.3689205522142975 L -0.44633467500445884,3.3827518832850254 L -0.5117268369006543,3.3774224234343446 L -0.5749114642465746,3.3667635037329835 L -0.6334205365844696,3.344816795719625 L -0.6859036282985294,3.3083220835576075 L -0.7446305706134009,3.297400771449408 L -0.8077821626777832,3.2868216059727735 L -0.8636454178933471,3.258487330379125 L -0.9099235802092278,3.213178601706002 L -0.9457327992685417,3.1604115694518886 L -0.9632181787160344,3.1000545543158093 L -1.0181873777940091,3.0843021316469086 L -1.0813720051399296,3.073643211945547 L -1.1413946338730476,3.0553505523089535 L -1.1954386882373105,3.0226243373474135 L -1.2463608173011675,2.982361127984918 L -1.2936446894582352,2.93434705266742 L -1.330655733226637,2.8820778325074063 L -1.3469392879650417,2.8212230052772282 L -1.3202919887116384,2.8296547616383174 L -1.2936446894582352,2.8862167853334135 L -1.2540145753100211,2.9374011510212994 L -1.2053201009093641,2.983042394483976 L -1.1521703171823072,3.0179275697462904 L -1.0950043375176386,3.0431167903068754 L -1.0334264952738013,3.057654832393505 L -0.970241867927881,3.046995912692144 L -0.9472297991639924,2.9899205838079386 L -0.9193671985157115,2.9338619544329725 L -0.873774529302535,2.8882692852197964 L -0.829981682449018,2.8450530304757926 L -0.8246522225983374,2.7796608685795974 L -0.8063904339218083,2.7196254526761368 L -0.7539073422077489,2.683130740514119 L -0.7196201645960055,2.6328551833503337 L -0.6681181980984326,2.593991825384288 L -0.6093486398530622,2.5726739859815653 L -0.5417489434065915,2.5726739859815653 L -0.504884631557498,2.5263289748821602 L -0.4733040197777022,2.471810396142921 L -0.42927231321472864,2.422449229729267 L -0.37678922150066896,2.3859545175672494 L -0.31794163633861244,2.36482505180502 L -0.25475700899269155,2.36482505180502 L -0.30377657349441034,2.382224847619839 L -0.29268661892182046,2.396801810909104 L -0.2295019915758996,2.407460730610465 L -0.1718236619302359,2.431413028898249 L -0.11621864491576982,2.4504809918738704 L -0.05319331683978746,2.4500964094159103 L -0.007862717337185725,2.4887847764776865 L 0.03861289114768179,2.514049927624078 L 0.0973824493930523,2.4927320882213557 L 0.15141533930525578,2.459978919888239 L 0.19921554306870742,2.412178716124787 L 0.23194175803024739,2.3581346617605243 L 0.2465692073884747,2.296593853221158 L 0.22589220442744365,2.2375588518303755 L 0.232941973437619,2.2049412562846 L 0.2718670473648242,2.251556935663672 L 0.322142604528609,2.2858441132754153 L 0.3639667765413074,2.2900631614576326 L 0.40046148870332515,2.237580069743572 L 0.44479721700409336,2.188952876732558 L 0.5000982122807645,2.159261185568856 L 0.562336333494835,2.1569761176284743 L 0.6255209608407553,2.1569761176284743 L 0.6675965355922466,2.1158423694314665 L 0.6917237308347335,2.058236484476458 L 0.741084897248388,2.0142047779134837 L 0.7935679889624477,1.9777100657514666 L 0.8112202151220765,1.9174221607863922 L 0.8114919515606244,1.8499350212581596 L 0.816821411411305,1.7889579284625141 L 0.816821411411305,1.721358232016044 L 0.816821411411305,1.6537585355695728 L 0.8221508712619856,1.5883663736733777 L 0.8434687106647083,1.529596815428007 L 0.8600624261299991,1.4688704609774206 L 0.8701160099181116,1.4054350952864414 L 0.8701160099181116,1.3378353988399703 L 0.8701160099181116,1.2702357023935003 L 0.8701160099181116,1.2026360059470302 L 0.8635099097171548,1.1377726457981925 L 0.8541276303660695,1.0740592167049148 L 0.8470479434002847,1.0093920226170285 L 0.8381392508140276,0.9454824274627981 L 0.8274803311126663,0.8822978001168779 L 0.8167022481242627,0.8191625318205871 L 0.800833031859263,0.7581360799753122 L 0.784844652307221,0.6971589871796668 L 0.7688562727551791,0.6361818943840202 L 0.7528678932031371,0.5752048015883748 L 0.7262205939497338,0.5186427778932792 L 0.6919464051640993,0.4652399152811554 L 0.6516831958016038,0.4143177862172986 L 0.6076514892386305,0.36495661980364463 L 0.5673882798761345,0.31403449073978723 L 0.5195880761126829,0.2662342869763356 L 0.4755563695497096,0.21687312056268168 L 0.42619520313605563,0.17284141399970843 L 0.3733955974255857,0.1371108342205052 L 0.3149851691071247,0.11492597847758403 L 0.2536489463845686,0.09980461526574061 L 0.1882567844883734,0.09447515541505995 L 0.12065708804190338,0.09447515541505995 L 0.05666296009459391,0.1031797677857984 L -0.0036249448704802367,0.12083199394542729 L -0.06235188718535271,0.14225271730553515 L -0.11951786685002107,0.16744193786611958 L -0.17668384651468944,0.192631158426704 L -0.23228886352915493,0.2215888761877662 L -0.2894548431938233,0.24677809674835063 L -0.34662082285849194,0.2719673173089351 L -0.4038538670658839,0.2969946297409249 L -0.46041589076097955,0.3236419289943282 L -0.516557799202295,0.3513034761911673 L -0.5713324036008959,0.38226598735181544 L -0.6262068705810231,0.41298740891376945 L -0.6800413818905386,0.4462195055599833 L -0.732734016659346,0.48220833603732777 L -0.7843352910796304,0.5208319434695124 L -0.8361392374372623,0.5589662575618404 L -0.8855004038509159,0.6029979641248137 L -0.9348615702645695,0.6470296706877869 L -0.9462699458233877,0.7010737250520501 L -0.9827646579854055,0.7535568167661099 L -1.0230278673479007,0.804478945829966 L -0.9970283488887611,0.8334366635910282 L -0.9685476385667151,0.8861173382556816 L -0.9578887188653538,0.9493019656016031 L -0.9632181787160344,1.0146941274977983 L -0.9909189561306664,1.0708197862508488 L -1.016512777222841,1.1278181748879894 L -1.0271716969242024,1.1910028022339099 L -0.9953937704369402,1.2454396505452603 L -0.9344990368078231,1.2296501036100398 L -0.8795008484573994,1.260072835361868 L -0.84597006200106,1.3137836253010862 L -0.8406406021503793,1.3791757871972814 L -0.8566289817024213,1.4401528799929266 L -0.8540029760246626,1.4934196419711507 L -0.8353111422996986,1.553276927383119 L -0.8406406021503793,1.6186690892793143 L -0.83366962854993,1.6789662448169838 L -0.8326404709063019,1.7439370377326668 L -0.8578296914668864,1.8011030173973352 L -0.8980929008293824,1.8520251464611925 L -0.9383561101918779,1.9029472755250494 L -0.9673138279529402,1.958552292539515 L -0.9685476385667151,2.021225858795812 L -0.9375989221616347,2.0760061771692606 L -0.8857624023476427,2.090179260961444 L -0.8191924910993704,2.0876931395696254 L -0.7560078637534465,2.098352059270987 L -0.7526685906631444,2.130328818375071 L -0.8136456834587922,2.114340438823029 L -0.8790378453549897,2.1196698986737097 L -0.935884271415319,2.1456305898798007 L -0.984536018118757,2.1899561477081613 L -0.9793086453506061,2.2103728032178105 L -0.9227889075096336,2.1836234168818773 L -0.8832762809558246,2.2304420385769768 L -0.8779468211051439,2.295834200473172 L -0.8374770469530178,2.2657312192954064 L -0.7881158805393637,2.221699512732433 L -0.7293889382244878,2.2002787893723217 L -0.6642730538493836,2.194282336583239 L -0.5988808919531885,2.1996117964339192 L -0.5687476275494787,2.231498033321816 L -0.6341022939160331,2.2262590956873227 L -0.7017019903625044,2.2262590956873227 L -0.7620990436463294,2.2436478144955245 L -0.798004923344934,2.293252883301491 L -0.8033343831956147,2.358645045197689 L -0.7825150872148492,2.4176211068898694 L -0.7422518778523525,2.468543235953727 L -0.6913297487884962,2.5088064453162224 L -0.6325245774788223,2.5300383071761203 L -0.5794970694670272,2.499856492239414 L -0.6071855700354873,2.4437257482501726 L -0.5921338291963508,2.4041091107877466 L -0.5518706198338547,2.3531869817238893 L -0.4993875281197926,2.316692269561869 L -0.4405485296270257,2.295542073746171 L -0.37515636773083055,2.290212613895491 L -0.30976420583463293,2.295542073746171 L -0.2443720439384378,2.300871533596852 L -0.18339495114278756,2.28488315404481 L -0.15314028141257457,2.2319285008265193 L -0.1264929821591713,2.2282721848369675 L -0.13803168290669413,2.2910923949416517 L -0.18742112944207473,2.3275188328502554 L -0.2506057567879986,2.3275188328502554 L -0.3159979186841962,2.3221893729995746 L -0.38139008058039137,2.316859913148894 L -0.44457470792631526,2.3275188328502554 L -0.502234466097484,2.3515159666436447 L -0.5478271353106611,2.3971086358568217 L -0.5635086899149852,2.4537977506065394 L -0.5549233257263181,2.5161234831367723 L -0.5998694230394263,2.5557401205992 L -0.6648699518816698,2.5513561465788426 L -0.7220061956197804,2.526095137141064 L -0.7713673620334331,2.482063430578092 L -0.8078620741954533,2.42958033886403 L -0.8292827975555646,2.370853396549154 L -0.84597006200106,2.3342129546442343 L -0.8566289817024213,2.397397581990158 L -0.8406406021503793,2.458374674785806 L -0.7982922724088445,2.5084331187094873 L -0.7458091806947811,2.5449278308715084 L -0.6870822383799075,2.5663485542316176 L -0.7030191635031571,2.583332905682927 L -0.7645913883562829,2.5687813020154517 L -0.8170744800703444,2.5322865898534324 L -0.8588986520830428,2.485132957990053 L -0.8779468211051439,2.4254232714909083 L -0.8779468211051439,2.3666537132455314 L -0.9045941203585472,2.3269944598526062 L -0.9045941203585472,2.259394763406135 L -0.9365008631798396,2.21553015970317 L -0.9820935323930172,2.2611228289163474 L -1.0072827529536053,2.3182888085810194 L -1.016512777222841,2.3820653037941404 L -1.0058538575214797,2.445249931140064 L -0.9765546202136611,2.5007134861264517 L -0.9255167314606757,2.5406972268774815 L -0.8653445861847247,2.5586289216485816 L -0.9074878829851912,2.578003445832246 L -0.9653672618498652,2.5545365232956927 L -1.0111833173721603,2.5059144584209965 L -1.0378306166255635,2.449352434725896 L -1.0522404151330584,2.3877214722522897 L -1.109441712950343,2.3701545116557003 L -1.1497492734898573,2.4161781993650946 L -1.1604081931912187,2.479362826711016 L -1.1550787333405381,2.5447549886072136 L -1.1345572363453738,2.603854402678091 L -1.1018310213838305,2.657898457042357 L -1.0572404822351813,2.7059104822485818 L -1.005316223106796,2.7437543356180303 L -1.0098816125906154,2.7592050807553883 L -1.0658678901084933,2.7311678072724583 L -1.1152290565221479,2.687136100709485 L -1.1517237686841684,2.6346530089954223 L -1.176912989244756,2.577487029330751 L -1.187055492444622,2.5140884952660745 L -1.187055492444622,2.450903867920153 L -1.17106711289258,2.3899267751245024 L -1.1888978355257955,2.3773263145875547 L -1.2296911712500673,2.4280288581225915 L -1.2581187626493566,2.4838534606658804 L -1.2757709888089876,2.544141365630957 L -1.2776563099061933,2.6109601365095374 L -1.2723268500555125,2.6763522984057326 L -1.2293346306512192,2.7059104822485818 L -1.230897137667669,2.757999114337786 L -1.1944024255056513,2.8104822060518466 L -1.143480296441793,2.8507454154143432 L -1.0878752794273252,2.879703133175408 L -1.0255520191858054,2.892441577022405 L -0.9641775441967646,2.877412562951093 L -0.9266164408881287,2.8824871384479023 L -0.981262735670134,2.9137594164251275 L -1.0466548975663292,2.9190888762758083 L -1.1076319903619793,2.9031004967237664 L -1.1630851727978258,2.873776217863756 L -1.2140073018616828,2.8335130085012596 L -1.266280388695898,2.796511299710153 L -1.3314611864914268,2.7906715617810454 L -1.3886271661561003,2.765482341220456 L -1.4442321831705696,2.7365246234593896 L -1.4908347039334195,2.6882283231536666 L -1.524758601895563,2.6346803653316737 L -1.5461793252556724,2.5759534230168 L -1.5547882221415874,2.5119196484175443 L -1.544129302440226,2.4487350210716228 L -1.517977434949564,2.4122947586984043 L -1.5233333059822791,2.4772655516140896 L -1.5281409228881841,2.5428738679354392 L -1.512152543336142,2.6038509607310893 L -1.4801757842320582,2.658205449875914 L -1.435960154752222,2.7074904329229725 L -1.3834770630381599,2.743985145084993 L -1.3221816703648126,2.7592050807553883 L -1.2883152296075544,2.7173991929650994 L -1.3043036091595965,2.6564221001694515 L -1.309633069010277,2.591029938273254 L -1.3011919639907579,2.5269266620072814 L -1.2829857697568738,2.4668682181316823 L -1.254582020070061,2.411033740027736 L -1.2143188107075658,2.36011161096388 L -1.1646345540917236,2.316859913148894 L -1.1102800649469016,2.28488315404481 L -1.101208948846289,2.3216141870121323 L -1.0765235283605132,2.3555528248838433 L -1.0591484560282862,2.295150119044593 L -1.0431600764762443,2.2341730262489428 L -1.0160298554806635,2.1778110352890194 L -0.9719981489176888,2.128449868875364 L -0.9434099312665544,2.093022599420306 L -0.9898654779694377,2.0531468978742837 L -1.000524397670799,1.9899622705283597 L -0.9853674580899118,1.9286407840203608 L -0.9526412431283692,1.8745967296560955 L -0.9123780337658727,1.8236746005922377 L -0.8726173612544632,1.7725443139490695 L -0.8566289817024213,1.7115672211534192 L -0.8802160885212048,1.679593998483276 L -0.932699180235267,1.7160887106452962 L -0.98986502815124,1.7412782492753829 L -1.0385797544135207,1.7793336060181044 L -1.0376251667802983,1.8427434362835808 L -1.0413885917714094,1.8905031250944413 L -1.1045732191173285,1.87984420539308 L -1.1671661455094429,1.891931617561985 L -1.2180882745733028,1.9321948269244833 L -1.235020631100748,1.9927809116543433 L -1.2137027916980252,2.051550469899715 L -1.2002010123431335,2.1114975791694985 L -1.2403500909514287,2.075579670807651 L -1.2741048274172944,2.021961643999676 L -1.3281488817815537,1.9892354290381393 L -1.385314861446221,1.9640462084775558 L -1.4249314989086468,1.9791542557394075 L -1.4538892166697106,2.034759272753875 L -1.4801757842320582,2.091470716407774 L -1.4908347039334195,2.154655343753693 L -1.4855052440827388,2.2200475056498883 L -1.4647082809595775,2.279032817914568 L -1.4175546490961968,2.2808860772664357 L -1.3603886694315348,2.2556968567058577 L -1.3484679388300733,2.2742242343434484 L -1.405029962525164,2.300871533596852 L -1.4098739377157745,2.3445260808597324 L -1.3682571273677644,2.3948875300373507 L -1.3931356456372943,2.439437489714549 L -1.4541127384329373,2.423449110162507 L -1.5095466315725738,2.394078262821991 L -1.5589077979862302,2.3500465562590156 L -1.5954025101482519,2.297563464544952 L -1.6205917307088333,2.240397484880287 L -1.6347301199017972,2.1786541009876537 L -1.6347301199017972,2.1154694736417348 L -1.62164473911915,2.0532899193842553 L -1.592094441096352,1.997930357150996 L -1.5571526322875804,1.9467627733059356 L -1.5974158416500783,1.8958406442420763 L -1.6226050622106611,1.8386746645774095 L -1.6294006600511166,1.7738897969208898 L -1.6240712002004358,1.7084976350246945 L -1.6027533607977134,1.6497280767793325 L -1.5693558504535357,1.5959620820669116 L -1.5184337213896746,1.5556988727044119 L -1.5310605858431932,1.4985328930397444 L -1.5295334450763407,1.4335621001240615 L -1.5093019424551601,1.3763961204593997 L -1.5048879124584513,1.3129862901939198 L -1.487235686298824,1.2526983852288476 L -1.4620464657382422,1.1955324055641816 L -1.4255517535762208,1.1430493138501183 L -1.3815200470132496,1.0936881474364668 L -1.3305979179493916,1.05342493807397 L -1.325621448562319,0.9923016318409076 L -1.3021838881310144,0.9344100907940216 L -1.2450179084663495,0.9092208702334408 L -1.2969334274610624,0.8938941330171585 L -1.3515751954160462,0.8626109263127504 L -1.3805329131771102,0.8070059092982836 L -1.3949044266211676,0.7453590886321716 L -1.405563346322529,0.6821744612862574 L -1.4162222660238903,0.6189898339403382 L -1.4268811857252515,0.5558052065944192 L -1.4375401054266128,0.49262057924850017 L -1.4481990251279742,0.4294359519025811 L -1.4588579448293355,0.3662513245566669 L -1.4695168645306969,0.30306669721074786 L -1.4855052440827388,0.24208960441510488 L -1.4967592195657407,0.17915145724430992 L -1.512152543336142,0.11792788427354284 L -1.5228114630375034,0.05474325692762863 L -1.5346419092427102,-0.007956108251718004 L -1.544129302440226,-0.07162599776420948 L -1.596593660815371,-0.06990785982437907 L -1.6537596404800403,-0.0950970803849641 L -1.7031208068936936,-0.13912878694793676 L -1.7524819733073485,-0.18316049351091063 L -1.7965136798703232,-0.23252165992456636 L -1.8405453864332981,-0.2818828263382221 L -1.8883455901967505,-0.3296830301016744 L -1.9361457939601996,-0.37748323386512356 L -1.9855069603738549,-0.42151494042809806 L -2.0333071641373066,-0.4693151441915497 L -2.0826683305509603,-0.5133468507545229 L -2.132029496964614,-0.5573785573174962 L -2.1813906633782647,-0.6014102638804658 L -2.2291908671417158,-0.6492104676439169 L -2.2694540765042137,-0.7001325967077762 L -2.3097172858667094,-0.7510547257716336 L -2.3499804952292056,-0.801976854835491 L -2.3915134186984504,-0.8523730510959918 L -2.430506913954198,-0.9038211129632058 L -2.4661258566079796,-0.9566669602850981 L -2.499727841077768,-1.0103482590415402 L -2.5354088346668284,-1.0631684040244755 L -2.5651802710008487,-1.118436367770066 L -2.5941379887619105,-1.1740413847845315 L -2.6230957065229688,-1.2296464017989928 L -2.6482849270835502,-1.2868123814636587 L -2.669705650443651,-1.3455393237785231 L -2.694894871004232,-1.402705303443189 L -2.71128100973929,-1.4635176389906681 L -2.727269389291332,-1.5244947317863111 L -2.7120166889502277,-1.5583930775068815 L -2.6981329599910806,-1.4965442098916086 L -2.679304250635206,-1.4367436202223267 L -2.6579864112324834,-1.3779740619769598 L -2.6366685718297607,-1.319204503731593 L -2.6100212725763576,-1.2626424800365021 L -2.5834923487896093,-1.2060314236176752 L -2.554534631028545,-1.150426406603208 L -2.524749914965467,-1.0951639435014962 L -2.48908220110546,-1.0423382978746771 L -2.4563559861439153,-0.9882942435104104 L -2.419861273981898,-0.9358111517963513 L -2.3833665618198774,-0.8833280600822886 L -2.3431033524573803,-0.83240593101843 L -2.302840143094883,-0.7814838019545713 L -2.262576933732387,-0.7305616728907139 L -2.2223137243698945,-0.6796395438268608 L -2.174513520606444,-0.6318393400634097 L -2.12515235419279,-0.5878076335004364 L -2.0757911877791355,-0.5437759269374626 L -2.0264300213654804,-0.49974422037448807 L -1.9786298176020312,-0.4519440166110389 L -1.9292686511883759,-0.4079123100480644 L -1.881468447424924,-0.36011210628461215 L -1.8336682436614717,-0.3123119025211599 L -1.7858680398980196,-0.26451169875770825 L -1.7418363333350486,-0.21515053234405615 L -1.6940361295715967,-0.16735032858060453 L -1.6446749631579427,-0.12331862201763126 L -1.5900246938649425,-0.09205593935876305 L -1.5463313833806502,-0.11650115767174252 L -1.5387998425895453,-0.18098118777696995 L -1.5174820031868228,-0.23975074602233684 L -1.4820692133003277,-0.2926819846163581 L -1.4418060039378306,-0.34360411368021676 L -1.393633576912618,-0.3905056909968798 L -1.3415227084603205,-0.4278990296056849 L -1.2890396167462572,-0.46439374176770626 L -1.2334345997317921,-0.49335145952876847 L -1.1762686200671268,-0.5185406800893498 L -1.119102640402465,-0.5437299006499277 L -1.0586765038426011,-0.5610484062186608 L -0.9976994110469581,-0.5770367857707028 L -0.9366779628570443,-0.5929180819283316 L -0.8735376909053961,-0.6036840850241061 L -0.812560598109758,-0.6196724645761481 L -0.7537910398643911,-0.6409903039788707 L -0.6928139470687482,-0.6569786835309127 L -0.6336774753814824,-0.6774107155259869 L -0.5849628808678982,-0.7154663903382092 L -0.5854396336249689,-0.7363074769838613 L -0.6426056132896343,-0.71111825642328 L -0.705440240785196,-0.699614362336358 L -0.7725471991210002,-0.7008039373658277 L -0.8318094954770341,-0.7209322017390806 L -0.8861639846218536,-0.7529089608431645 L -0.9271423678128312,-0.8021045075508515 L -0.9472297991639924,-0.8613837174984329 L -0.9320127781958956,-0.9226803174810004 L -0.8735627271374483,-0.9447695154676682 L -0.8114369682657518,-0.9315542611350823 L -0.75583195125129,-0.9025965433740244 L -0.6994615869516239,-0.8754865374088197 L -0.6414999919219563,-0.852218102252858 L -0.5819224704608901,-0.8328508586033744 L -0.5187378431149758,-0.822191938902013 L -0.46596573687742,-0.8504519138807299 L -0.472907872453414,-0.9120969988335078 L -0.504884631557498,-0.9664514879783274 L -0.5262024709602205,-1.0252210462236895 L -0.5315319308109012,-1.0906132081198845 L -0.5208730111095399,-1.1537978354658036 L -0.4873128444359177,-1.207496455720559 L -0.4363907153720618,-1.2477596650830538 L -0.38234666100780373,-1.2804858800445889 L -0.3191784390108472,-1.2911844057619108 L -0.2570879631270483,-1.2778839707614102 L -0.20643487991938114,-1.237509318956379 L -0.17978758066597786,-1.1809472952612834 L -0.17445812081529719,-1.115555133365093 L -0.20945940243202626,-1.0673470920333232 L -0.20110542006870047,-1.1282267820412069 L -0.2117643397700618,-1.1914114093871258 L -0.25087129907545447,-1.2396905476057327 L -0.3080372787401225,-1.2648797681663158 L -0.3445552904218877,-1.2534326411919559 L -0.28780871569032923,-1.227230887553743 L -0.25440001857550704,-1.1743083364196616 L -0.3066200330693917,-1.2101679239887788 L -0.3653469753842572,-1.23158864734888 L -0.42407391769912905,-1.21211132409986 L -0.4462605732000107,-1.1537016412655534 L -0.44093111334933005,-1.0883094793693584 L -0.40262409597036647,-1.039698994355721 L -0.3438971536554967,-1.0204856357587786 L -0.28517021134062576,-1.0419063591188853 L -0.24374109887414575,-1.089223630004257 L -0.23308217917278443,-1.1524082573501762 L -0.22775271932210375,-1.1664639870521376 L -0.2224232594714231,-1.1010718251559473 L -0.2463764757501599,-1.0433938757545869 L -0.29509107026374487,-1.005338200942363 L -0.3596777412342336,-0.9980641139744747 L -0.4187888054942977,-1.0185574849248873 L -0.4590520148567932,-1.0694796139887441 L -0.472907872453414,-1.1313400263003817 L -0.47823733230409465,-1.1768732984005708 L -0.4995551717068173,-1.1181037401552039 L -0.504884631557498,-1.0527115782590135 L -0.4844205287628634,-0.9935883907318822 L -0.456919492901372,-0.9373799963185511 L -0.4356016534986494,-0.8786104380731842 L -0.44147619808527,-0.8174075637872721 L -0.37630981767934857,-0.822191938902013 L -0.3162175002045179,-0.8403163550332118 L -0.26061248319005154,-0.8692740727942752 L -0.20969035412619108,-0.9095372821567743 L -0.1901480165682571,-0.9077617803119856 L -0.23151241542371098,-0.8594981578567776 L -0.2844552802950155,-0.8241134362865888 L -0.34242892826362614,-0.8008740994992904 L -0.4056135556095452,-0.7902151797979291 L -0.46879818295546427,-0.7902151797979291 L -0.5208730111095399,-0.76220261030392 L -0.5561255805665696,-0.7123269315354541 L -0.547157184146716,-0.7049438221870385 L -0.48838762590134915,-0.7262616615897612 L -0.42961806765598226,-0.7475795009924838 L -0.3664334403100681,-0.7582384206938452 L -0.32368299663435557,-0.7177795414210587 L -0.3343419163357169,-0.6545949140751397 L -0.36631867543980084,-0.6002404249303201 L -0.40362489439456545,-0.5480934703357669 L -0.4356016534986494,-0.49373898119094745 L -0.4669323557288415,-0.43911688652689757 L -0.4958900734899034,-0.3835118695124321 L -0.5248477912509619,-0.32790685249797086 L -0.5500370118115431,-0.2707408728333055 L -0.5714577351716439,-0.21201393051844034 L -0.5901559891683884,-0.15215930447012177 L -0.6105306846913753,-0.09299908323849916 L -0.627462208123153,-0.03241265342911191 L -0.6420666398101522,0.029137689341849588 L -0.6594389672272369,0.08954153216216917 L -0.6924450809313141,0.14346964867117906 L -0.7395987127946922,0.18529382068387684 L -0.7918359029055397,0.2223821918313957 L -0.8461258588730187,0.25451474780743816 L -0.8986089505870846,0.2910094599694619 L -0.9495310796509453,0.3312726693319617 L -0.9988922460646016,0.37530437589493737 L -1.0429239526275773,0.4246655423085937 L -1.0794186647895965,0.4771486340226546 L -1.1159133769516179,0.529631725736718 L -1.1444198136391768,0.5854236694922668 L -1.1625233208723043,0.6455246477162527 L -1.176407049831454,0.7073735153315286 L -1.1550787333405381,0.6956294110637489 L -1.1140555910323953,0.6450220565324701 L -1.0700238844694197,0.5956608901188137 L -1.0179666107312573,0.558138162424277 L -1.0140266829975066,0.5769699076016656 L -1.0618268867609548,0.6247701113651136 L -1.1096270905244061,0.6725703151285652 L -1.1497492734898573,0.7235508592387325 L -1.1657376530418995,0.7845279520343803 L -1.1172820731666495,0.8086227754062679 L -1.0665035910101044,0.7680127717319598 L -1.0262403816476076,0.7170906426681019 L -0.98597717228511,0.6661685136042432 L -0.9381769685216574,0.6183683098407904 L -0.8888158021080029,0.5743366032778164 L -0.8378936730441492,0.5340733939153246 L -0.7869715439802927,0.4938101845528291 L -0.7360494149164328,0.4535469751903306 L -0.6835663232023692,0.4170522630283086 L -0.6310832314883028,0.38055755086628423 L -0.5760210847807261,0.35028922824773145 L -0.5214341601095783,0.3188736181436863 L -0.4651045719408158,0.29166516989024427 L -0.408542548245725,0.26501787063684096 L -0.35149718376578615,0.23953745926146494 L -0.29321096630527216,0.21705273198071506 L -0.23664894261018138,0.19040543272731178 L -0.17999924477179377,0.1639697975797244 L -0.1213173606697237,0.14244029407118586 L -0.06410632279226323,0.1173598536590424 L -0.005379380477394397,0.09593913029893816 L 0.05490852448767793,0.0782869041393111 L 0.11675739210295376,0.06440317518016118 L 0.1835681033084863,0.06249839631097601 L 0.2511677997549527,0.06249839631097601 L 0.31214489255059563,0.07848677586301797 L 0.3709144507959625,0.09980461526574061 L 0.42444076752913484,0.13378075943802298 L 0.47536289659299286,0.1740439688005197 L 0.5247240630066443,0.21807567536349054 L 0.5740852294202995,0.26210738192646504 L 0.6234463958339534,0.30613908848943827 L 0.672807562247608,0.35017079505241216 L 0.7221687286612618,0.39420250161538545 L 0.7528678932031371,0.3793993051567164 L 0.7407256110248033,0.316829106666675 L 0.7155616742483725,0.25965265411570654 L 0.6835849151442885,0.20529816497088213 L 0.6463154633406581,0.15313598092368136 L 0.6022837567776873,0.10377481451002984 L 0.5498006650636251,0.0672801023480097 L 0.4941956480491633,0.03832238458695114 L 0.4342421960647131,0.01986271750553075 L 0.37326510326907014,0.0038743379534887804 L 0.3100804759231559,-0.0067845817478725335 L 0.24689584857723687,-0.017443501449233848 L 0.18182938467238027,-0.023559265807841057 L 0.11611152478484657,-0.02810242115059516 L 0.04851182833837533,-0.02810242115059516 L -0.019087868108091065,-0.02810242115059516 L -0.08273667494095904,-0.01856412986200083 L -0.14545712279992917,-0.0067845817478725335 L -0.20643421559557215,0.009203797804169437 L -0.26741130839121513,0.025192177356211407 L -0.326180866636582,0.046510016758934035 L -0.3857371624165245,0.06592850373565737 L -0.44371998312730604,0.08914569556437929 L -0.5002820068223969,0.11579299481778257 L -0.5568440305174877,0.14244029407118586 L -0.5990592734232064,0.18864979728076847 L -0.635553985585219,0.24113288899482332 L -0.675817194947714,0.29205501805867956 L -0.7160804043102116,0.3429771471225382 L -0.7601121108731872,0.3923383135361945 L -0.8079123146366404,0.44013851729964737 L -0.8588344437004969,0.48040172666214287 L -0.9118949305659341,0.5155024836188319 L -0.972872023361577,0.5314908631708738 L -0.9766924443978584,0.47568215079384923 L -0.9472297991639924,0.42028628158663944 L -0.9074715172743095,0.3691550047155354 L -0.859671313510859,0.321354800952085 L -0.8109920685628824,0.2756767903382023 L -0.8086638430462953,0.3032632892633028 L -0.84959116686554,0.3539103331122118 L -0.889854376228041,0.4048324621760735 L -0.9338860827910134,0.4541936285897268 L -0.8869276569331604,0.46220788511202526 L -0.8349360646062061,0.4245265884637684 L -0.7855748981925486,0.3804948819007915 L -0.7415431916295719,0.33113371548713394 L -0.7012799822670703,0.2802115864232711 L -0.6610167729045743,0.22928945735941367 L -0.6582675036775653,0.19573489257799243 L -0.711093709121406,0.2314012549201192 L -0.7647689474169088,0.26501787063684096 L -0.7592786866377015,0.23162109378028903 L -0.706795594923646,0.19512638161827553 L -0.6527515405593877,0.16240016665673981 L -0.5987074861951296,0.12967395169520468 L -0.5635086899149852,0.07665407404718504 L -0.5315319308109012,0.02229958490237034 L -0.5042973385110002,-0.034019174047773236 L -0.47533962074994196,-0.08962419106223508 L -0.45015040018936053,-0.14679017072690043 L -0.4249611796287861,-0.2039561503915591 L -0.4035404562686819,-0.2626830927064279 L -0.37697759514116214,-0.3192800918184408 L -0.35565975573843955,-0.37804965006380764 L -0.3317412917874152,-0.4357419943506268 L -0.3076946170823136,-0.4933812320042653 L -0.28513134786672956,-0.551634916330161 L -0.25994212730614846,-0.6088008959948263 L -0.23841163902346507,-0.6674823721900899 L -0.21709379962074246,-0.7262519304354568 L -0.1996404604106741,-0.783420760289222 L -0.25559567794708066,-0.7582384206938452 L -0.25189071311829303,-0.7877058743407152 L -0.20317611860471535,-0.8094623206646369 L -0.15979098394181893,-0.8528474553275333 L -0.1371519018605326,-0.9110697369362527 L -0.1131810400211333,-0.9687403773070674 L -0.08918676320440669,-1.0264013188767105 L -0.0760571740038046,-1.086194261936805 L -0.12116352230849063,-1.0453414910061565 L -0.15314028141257457,-0.9909870018613516 L -0.176241385392394,-0.9536451705919327 L -0.16612615363372066,-1.0170550008574126 L -0.1478108215618939,-1.0770682383603614 L -0.12116352230849063,-1.1336302620554524 L -0.10517514275644865,-1.1946073548510951 L -0.09451622305508735,-1.2577919821970143 L -0.07032802843463158,-1.3153726003823671 L -0.04513880787405018,-1.372538580047032 L -0.027486581714429772,-1.4328264850120975 L -0.017371349955757023,-1.4962363152775775 L 0.0014140542571644819,-1.5560548425243912 L 0.036775588365887776,-1.6090073119567097 L 0.0770387977283863,-1.6599294410205687 L 0.10599651548944486,-1.71553445803503 L 0.1239916308228196,-1.7756803336539455 L 0.13998001037486157,-1.8366574264495883 L 0.15596838992690354,-1.8976345192452313 L 0.17660542012795316,-1.9566860778953195 L 0.19802614348805012,-2.0154130202101816 L 0.21992190813507143,-2.0739431939813224 L 0.23709909300778143,-2.1344278674901225 L 0.25098282196693195,-2.196276735105399 L 0.2625575869405167,-2.2590820069185273 L 0.27854596649255864,-2.3200590997141703 L 0.30017100324533597,-2.378701412650819 L 0.32651110514868453,-2.435390681654628 L 0.3424994847007265,-2.496367774450271 L 0.36066467612517156,-2.5564432022456294 L 0.3798057036554911,-2.616114425491271 L 0.4072746200458499,-2.6723361242251564 L 0.4437693322078628,-2.7248192159392106 L 0.48403254157035824,-2.775741345003069 L 0.5183716597731882,-2.8291173129699874 L 0.5290305794745496,-2.8923019403159063 L 0.5450189590265915,-2.9532790331115493 L 0.5663367984293142,-3.0120485913569164 L 0.5983135575333981,-3.066403080501731 L 0.6367288275840501,-3.1043098060892222 L 0.6840057063331901,-3.1458364337987796 L 0.7427752645785569,-3.1458364337987796 L 0.804458269377569,-3.131552276579112 L 0.8516119012409499,-3.089728104566412 L 0.8754454697687922,-3.0320005954439275 L 0.8715115803783348,-2.9660303693358605 L 0.8425538626172744,-2.9104253523213965 L 0.7900707709032146,-2.8739306401593794 L 0.7268433382080518,-2.8633750617127047 L 0.6694949609730749,-2.88812393558528 L 0.6786674484204398,-2.905598747391318 L 0.7376076598065446,-2.8846929011154274 L 0.797682295700381,-2.9028600043592676 L 0.8395064677130738,-2.9500136362226415 L 0.8541276303660695,-3.0115570488005754 L 0.8334443406998112,-3.070589446152786 L 0.7862907088364304,-3.1124136181654865 L 0.7214975231665922,-3.119189134545376 L 0.6657148989062851,-3.090660198606012 L 0.6254516895437963,-3.039738069542161 L 0.604030966183692,-2.981011127227292 L 0.586378740024065,-2.92072322226222 L 0.5574210222630064,-2.8651182052477577 L 0.5396894991759108,-2.8048631461454976 L 0.5343600393252301,-2.7394709842493024 L 0.5237011196238689,-2.6762863569033835 L 0.5131915980278376,-2.6130398468360436 L 0.5023832802211462,-2.549917102211545 L 0.48639490066910424,-2.488940009415902 L 0.4715404111503945,-2.427493243990223 L 0.4544181415650203,-2.366985823824626 L 0.43310030216229767,-2.3082162655792593 L 0.41481523547103616,-2.248190491745209 L 0.3957940832075331,-2.1884696145382496 L 0.3757422859513049,-2.129175644465268 L 0.3584878642527685,-2.0687229634972395 L 0.3424994847007265,-2.0077458707015965 L 0.32278560747242363,-1.9483119295700515 L 0.30513338131279655,-1.8880240246049784 L 0.283712657952699,-1.8292970822901176 L 0.257228127089836,-1.7726676377201387 L 0.23058082783643272,-1.716105614025048 L 0.20814499627095542,-1.657799143296121 L 0.17918727850989685,-1.6021941262816597 L 0.15399805794931548,-1.5450281466169948 L 0.12880883738873408,-1.487862166952329 L 0.10361961682815267,-1.4306961872876642 L 0.08135595201737433,-1.372318402753951 L 0.05470865276397105,-1.31575637905887 L 0.033390813361248425,-1.256986820813503 L 0.010399728986788686,-1.1989103433286026 L -0.01102099437331555,-1.1401834010137337 L -0.032441717733419785,-1.0814564586988649 L -0.057210004100322745,-1.0241161223823116 L -0.07852784350304537,-0.9653465641369448 L -0.10047238501420905,-0.9068365944044625 L -0.12566160557479045,-0.8496706147397972 L -0.06981355870500369,-0.8435097783047357 L -0.010517046013891303,-0.8635554371377638 L 0.038844120399760804,-0.9075871437007352 L 0.07910732976225449,-0.9585092727645903 L 0.1300294588261107,-0.9987724821270851 L 0.18719543849077602,-1.0239617026876666 L 0.24565445646253287,-1.0460292526306005 L 0.296844509869498,-1.0856456354102626 L 0.34087621643246946,-1.1350068018239148 L 0.2913550343063799,-1.131300610241491 L 0.257228127089836,-1.1741391753726322 L 0.2625575869405167,-1.2395313372688177 L 0.27854596649255864,-1.3005084300644607 L 0.3027912734644659,-1.3580653915392629 L 0.33174899122552387,-1.4136704085537253 L 0.36824370338753737,-1.4661535002677795 L 0.41604390715098716,-1.5139537040312305 L 0.472163544358025,-1.5416690187439017 L 0.5334977917807249,-1.5265428867363644 L 0.5503484188772721,-1.465922948567779 L 0.5725707413004616,-1.441313764601436 L 0.6295074141295588,-1.4670565808343725 L 0.6882769723749256,-1.4883744202370952 L 0.7409467549940488,-1.5244184206841327 L 0.7812099643565412,-1.575340549747987 L 0.8221508712619856,-1.548871278401144 L 0.8274803311126663,-1.483479116504949 L 0.8221508712619856,-1.4180869546087538 L 0.8061624917099437,-1.3571098618131108 L 0.7861361389707255,-1.2978053522760966 L 0.7635268129044984,-1.2395707453223868 L 0.7319892006490929,-1.185034355596976 L 0.6995732946963306,-1.1308617670327574 L 0.6627682735255395,-1.078507209518658 L 0.6249608567868014,-1.0265678578436706 L 0.5784733576000749,-0.9782239140411516 L 0.532880688386897,-0.9326312448279735 L 0.48351952197323694,-0.8885995382649943 L 0.4310364302591815,-0.8521048261029808 L 0.3769923758949231,-0.8193786111414451 L 0.3192650336860137,-0.7955446396486098 L 0.25828794089037077,-0.7795562600965678 L 0.3020714172830307,-0.8062035593499711 L 0.35859080254244863,-0.8329537968930545 L 0.41107389425650287,-0.8694485090550668 L 0.4635569859705577,-0.9059432212170797 L 0.5129181523842117,-0.9499749277800529 L 0.5622793187978644,-0.9940066343430249 L 0.6036430173840787,-1.044472925845176 L 0.6462786961895239,-1.0944123458894481 L 0.6830689468853424,-1.146773021534587 L 0.712026664646401,-1.2023780385490488 L 0.7422089735017758,-1.2574758133238826 L 0.7688562727551791,-1.3140378370189734 L 0.784844652307221,-1.3750149298146164 L 0.800833031859263,-1.4359920226102594 L 0.800833031859263,-1.5035917190567305 L 0.7761890477134077,-1.5223544944487264 L 0.7270794279563906,-1.4777155005357339 L 0.6696619016350891,-1.453133567325173 L 0.6109349593202269,-1.4317128439650755 L 0.5553299423057657,-1.4027551262040174 L 0.5237011196238689,-1.3939960899699524 L 0.5290305794745496,-1.4593882518661476 L 0.5054951891272854,-1.5172392704350393 L 0.44580709120543427,-1.5043627997891371 L 0.3974070803987584,-1.4580106583242365 L 0.3584878642527685,-1.406531829042368 L 0.32651110514868453,-1.3521773398975532 L 0.2998638058952813,-1.2956153162024722 L 0.2838754263432393,-1.2346382234068292 L 0.2838754263432393,-1.1714535960609103 L 0.3366762924235472,-1.1579479094948943 L 0.37110808091491837,-1.175897586007725 L 0.41137129027741937,-1.2268197150715872 L 0.43310030216229767,-1.258729241720558 L 0.4117824627595751,-1.199959683475191 L 0.3798057036554911,-1.1456051943303762 L 0.3421203683033482,-1.0936152748893482 L 0.2942314476558513,-1.0460292526306005 L 0.23987695851103658,-1.0140524935265167 L 0.1811074002656697,-0.992734654123794 L 0.12454537657057892,-0.9660873548703908 L 0.08035148163313986,-0.9171177458300304 L 0.03631977507016902,-0.8677565794163788 L -0.016821498411142798,-0.8328508586033744 L -0.07559105665650967,-0.822191938902013 L -0.13361720127362714,-0.7990793402355152 L -0.17388041063612264,-0.7481572111716585 L -0.19577596021801982,-0.6896269483176364 L -0.2224232594714231,-0.6330649246225456 L -0.2456795751173827,-0.5750983095274662 L -0.270388398127549,-0.5177333426820879 L -0.292289519038068,-0.459205387547932 L -0.3174787395986494,-0.40203940788326664 L -0.3396713761863976,-0.3436322024962634 L -0.36098921558912017,-0.2848626442508965 L -0.38550940687943897,-0.22741954358886365 L -0.4089543542452461,-0.16953106231043888 L -0.4356016534986494,-0.11296903861535777 L -0.4610770685611762,-0.05592160459487492 L -0.48889625200545594,0.00015500877482379835 L -0.5155435512588592,0.05671703246991459 L -0.5149355646112319,0.08914569556437929 L -0.4579476601127858,0.0635265635223898 L -0.39960398267077424,0.041180556908253375 L -0.34049377548304816,0.020685116802181346 L -0.28176683316817963,-0.0007356065579228895 L -0.2210877733844072,-0.017443501449233848 L -0.15806909793763435,-0.028503064476216044 L -0.09692605324284514,-0.044090800702637135 L -0.033741425896926094,-0.05474972040399845 L 0.03216039285880361,-0.05884875975223429 L 0.0970428978954642,-0.05474972040399845 L 0.16464259434193546,-0.05474972040399845 L 0.2300347562381306,-0.04942026055331779 L 0.29321938358404964,-0.038761340851956476 L 0.3564040109299687,-0.02810242115059516 L 0.4195886382758781,-0.017443501449233848 L 0.41357531630662525,-0.038761340851956476 L 0.3590061472961104,-0.07021981691269852 L 0.30045126891644364,-0.09205593935876305 L 0.23999130001616922,-0.10929276643242983 L 0.1784970833251577,-0.12403269846284698 L 0.11629356478561759,-0.13706022435072965 L 0.0521278286333196,-0.14535053786556962 L -0.01547186781315164,-0.14535053786556962 L -0.08307156425962288,-0.14535053786556962 L -0.14625619160553224,-0.1346916181642083 L -0.20856039979279103,-0.1219071785894371 L -0.2682103771968182,-0.10271485906012436 L -0.3260142844225284,-0.07906573186922863 L -0.38318026408719374,-0.053876511308647235 L -0.4302721936479687,-0.06366711883826788 L -0.3982954345438848,-0.11802160798308257 L -0.3478552911201164,-0.15848446233457336 L -0.2946831559838816,-0.19331567652169554 L -0.23591359773851475,-0.19331567652169554 L -0.17635735212612771,-0.21273428461358765 L -0.11395941214723851,-0.22529243562577947 L -0.048567250251043366,-0.23062189547646011 L 0.016824911645151788,-0.2359513553271408 L 0.08221707354134694,-0.23062189547646011 L 0.1476092354375421,-0.22529243562577947 L 0.21190644271776687,-0.21731952149104203 L 0.27375531033304273,-0.20343579253189212 L 0.3327480483747471,-0.18265675682033422 L 0.3893100720698282,-0.15600945756693094 L 0.41184939794640185,-0.16660144208146543 L 0.36625672873322085,-0.21219411129464644 L 0.31533459966936406,-0.25245732065714194 L 0.26076571947562693,-0.2839164939832667 L 0.20256360299023687,-0.3066042589787819 L 0.1432266029848932,-0.32655217278871196 L 0.08042683040988872,-0.33814021409755884 L 0.016857348293055078,-0.3478700121914346 L -0.048534813603140076,-0.3531994720421152 L -0.11613451004960162,-0.3531994720421152 L -0.18101730390303997,-0.359758655129858 L -0.2117643397700618,-0.40837866171662035 L -0.17614455496387887,-0.4581022349071467 L -0.11807354061490428,-0.481106508458451 L -0.05488891326898522,-0.49176542815981233 L 0.01271078317748602,-0.49176542815981233 L 0.07810294507368117,-0.48643596830913166 L 0.14128757241960024,-0.47577704860777037 L 0.2022646652152432,-0.45978866905572835 L 0.2588266889103243,-0.4331413698023251 L 0.31538871260541507,-0.4064940705489218 L 0.3697432017502298,-0.37451731144483785 L 0.4267344946868377,-0.3489063598162139 L 0.4544181415650203,-0.37540472901669714 L 0.4172959304201986,-0.42762790214170154 L 0.36637380135634423,-0.4678911115041946 L 0.3138907096422894,-0.5043858236662075 L 0.25872375061676284,-0.5344011069652576 L 0.20268067561336628,-0.562301259188324 L 0.1439537332985041,-0.5837219825484216 L 0.08462261043094796,-0.6036840850241061 L 0.021437983085028905,-0.6143430047254674 L -0.04395417881116625,-0.6196724645761481 L -0.10500269981280266,-0.6354884011845441 L -0.08304128386534765,-0.6889554426349966 L -0.024553348125044745,-0.7109531789089133 L 0.036705367175662196,-0.7262616615897612 L 0.09988999452158126,-0.7369205812911225 L 0.1674896909680428,-0.7369205812911225 L 0.23508938741451404,-0.7369205812911225 L 0.29873965380315975,-0.7273858136818827 L 0.3574665961180286,-0.7059650903217785 L 0.41581313125116687,-0.683625982784316 L 0.47458268949653376,-0.6729670630829546 L 0.5355597822921767,-0.6889554426349966 L 0.5923743653775039,-0.7149930095831865 L 0.641735531791156,-0.7590247161461579 L 0.6782554552936079,-0.8114973649810802 L 0.7071879617142226,-0.8671128248746697 L 0.7315500538004145,-0.9246214123712521 L 0.7500294084344311,-0.9845667095044074 L 0.7714501317945354,-1.0432936518192761 L 0.8041763467560704,-1.0973377061835339 L 0.8406710589180834,-1.1498207978975887 L 0.8771657710800956,-1.2023038896116431 L 0.9020927690221955,-1.2595784854412446 L 0.8914338493208341,-1.3227631127871637 L 0.8701160099181116,-1.3815326710325304 L 0.8951266491118608,-1.4387726215213146 L 0.9316213612738731,-1.49125571323537 L 0.9173045061688552,-1.5371162012986033 L 0.9406428260876459,-1.5736457778479858 L 0.9926935864837667,-1.5941454206989978 L 1.0086819660358086,-1.6551225134946408 L 0.9861759483981773,-1.7133999122005914 L 0.940583279185,-1.7589925814137688 L 0.8823042704198027,-1.7814947120245312 L 0.8191196430738836,-1.7814947120245312 L 0.7565976389893827,-1.7724355063876052 L 0.7834253250286308,-1.8227110635513857 L 0.8371919095652066,-1.8561071499340605 L 0.8852695831563383,-1.9032374822763707 L 0.9127516887235568,-1.9594537178743265 L 0.8860868559691347,-2.016008478955499 L 0.8351647269052768,-2.0562716883179957 L 0.784844652307221,-2.0905404262046963 L 0.8322215855863839,-2.1166624772404496 L 0.832809790963347,-2.17960346194176 L 0.8381392508140276,-2.2449956238379554 L 0.8669823499629429,-2.300648117436067 L 0.8647865500674309,-2.364742274878965 L 0.8381392508140276,-2.421304298574056 L 0.8089874997929676,-2.476828944380673 L 0.7795151924565404,-2.4910406117216013 L 0.784844652307221,-2.425648449825406 L 0.7795151924565404,-2.360256287929211 L 0.7490375148558206,-2.305280858894599 L 0.705005808292854,-2.255919692480952 L 0.6889143749949692,-2.1949852859444907 L 0.6810068475750307,-2.1306609946001966 L 0.662267075741566,-2.070823565802929 L 0.6306284064538685,-2.016329035270866 L 0.5979021914923328,-1.9622849809066083 L 0.5663367984293142,-1.9077600983684846 L 0.5556778787279528,-1.8445754710225655 L 0.5298715242115429,-1.787665116612206 L 0.48115692969796586,-1.749609441799989 L 0.43310030216229767,-1.7112812281419294 L 0.47040652111706227,-1.6685000494486044 L 0.41468722506737954,-1.6826596724044751 L 0.3894980045067981,-1.6739388961608646 L 0.36054028674573957,-1.618333879146402 L 0.3318405649993652,-1.5626219966836203 L 0.3063933484241002,-1.5055628824672749 L 0.28120412786351884,-1.44839690280261 L 0.25224641010246024,-1.392791885788149 L 0.22525136798575207,-1.3363739019032572 L 0.19809947178082757,-1.280020889109029 L 0.16914175401976903,-1.2244158720945666 L 0.13998001037486157,-1.1688953653682705 L 0.10800325127077762,-1.1145408762234559 L 0.07602649216669367,-1.0601863870786412 L 0.04404973306260974,-1.0058318979338265 L 0.005510679212091631,-0.954195600273276 L -0.0347525301504075,-0.9032734712094155 L -0.08346712466398944,-0.8857552784204443 L -0.04398427268097258,-0.9366774074842957 L -0.003721063318476476,-0.9875995365481531 L 0.0327736488435358,-1.0400826282622073 L 0.06536757246533237,-1.09418147949357 L 0.09734433156941631,-1.148535968638385 L 0.1271837965276652,-1.2037757540051852 L 0.15614151428872375,-1.2593807710196472 L 0.18509923204978232,-1.3149857880341083 L 0.21405694981084025,-1.370590805048571 L 0.24123974753779404,-1.4269310180132866 L 0.26788704679119735,-1.4834930417083676 L 0.29339310869305496,-1.5405277813923555 L 0.3211816452980039,-1.5966170890985492 L 0.3475400470146943,-1.6532987780714827 L 0.3727292675752757,-1.7104647577361474 L 0.40168698533633423,-1.7660697747506098 L 0.43310030216229767,-1.8206576493286364 L 0.47040652111706227,-1.872804603923175 L 0.5074026246218946,-1.9250800125429772 L 0.5290305794745496,-1.9141098871287352 L 0.49586502410550165,-1.8602478135197766 L 0.45937031194348876,-1.8077647218057225 L 0.4571058495448878,-1.7681940404523562 L 0.5095889412589469,-1.8046887526143744 L 0.5347781618195301,-1.8618547322790417 L 0.5524303879791572,-1.9221426372441135 L 0.5769957181306754,-1.9795670407776476 L 0.6065773263007971,-2.0349136339232405 L 0.6409492363388433,-2.088276019067277 L 0.6569557674219599,-2.149245593252571 L 0.662267075741566,-2.214645273759105 L 0.6847232253402531,-2.2729433284831155 L 0.7155616742483725,-2.3277693211492867 L 0.7388701636618924,-2.385714325162243 L 0.7581973530538177,-2.4453084376400205 L 0.7528678932031371,-2.5107005995362157 L 0.7694110773225808,-2.5537115858058255 L 0.7335629370606381,-2.5895597260677676 L 0.6970682248986252,-2.642042817781822 L 0.6605735127366184,-2.694525909495871 L 0.6127733089731637,-2.7423261132593257 L 0.5679683104989739,-2.7285070533760285 L 0.5823251779813561,-2.6668541661539567 L 0.5823251779813561,-2.5992544697074855 L 0.5823251779813561,-2.5316547732610144 L 0.5876546378320368,-2.466262611364819 L 0.6072389776909067,-2.4067750140980206 L 0.6249608567868014,-2.3465159603238095 L 0.6356197764881627,-2.28333133297789 L 0.6185808912074978,-2.2227893739024034 L 0.5660977994934369,-2.186294661740384 L 0.5116443137479889,-2.1545569015721773 L 0.48639490066910424,-2.0997189170029724 L 0.5202124543813561,-2.0461269099503965 L 0.5503484188772721,-1.9910099387133235 L 0.5247764824013369,-1.9882682834236083 L 0.48828177023931796,-2.0407513751376696 L 0.459747601415701,-2.096531831866349 L 0.4740548793122937,-2.1582052597674086 L 0.5255054988014155,-2.1971925803776227 L 0.5805820253906063,-2.2274261868909573 L 0.6089724772347593,-2.2832661731416812 L 0.5983135575333981,-2.3464508004876 L 0.5769957181306754,-2.405220358732967 L 0.5629855272399209,-2.467016844101048 L 0.5556778787279528,-2.531589613424805 L 0.5556778787279528,-2.599189309871276 L 0.5610073385786335,-2.6645814717674714 L 0.5450189590265915,-2.7255585645631144 L 0.5556641383038269,-2.7887488833790495 L 0.6106225834182186,-2.8084303570224383 L 0.6662276004326804,-2.7794726392613804 L 0.7233935800973458,-2.7542834187007994 L 0.7765770817634837,-2.719479645744327 L 0.8252378382250534,-2.6737569999758133 L 0.8808428552395163,-2.666252972857564 L 0.8812506919421179,-2.7296628031230425 L 0.8807749296194729,-2.7970654323630084 L 0.8929926364132124,-2.859604388954402 L 0.9127516887235568,-2.9190196179542847 L 0.9393989879769601,-2.9755816416493754 L 0.971375747081044,-3.02993613079419 L 0.9937495186555373,-3.0882683076130633 L 1.003352506185128,-3.151890316385476 L 1.019309442023564,-3.188503556317831 L 1.0299998054385313,-3.1253319533845385 L 1.0166912081356758,-3.0632448584370753 L 0.9877334903746172,-3.007639841422613 L 0.958775772613566,-2.952034824408159 L 0.9335865520529846,-2.894868844743493 L 0.9159343258933575,-2.834580939778421 L 0.9127516887235568,-2.772714603912347 L 0.9127516887235568,-2.705114907465876 L 0.9000160475191772,-2.6427904863317795 L 0.8594570902167502,-2.6151374809786736 L 0.8609430979994458,-2.555752398155922 L 0.8731479551933449,-2.5139282261432294 L 0.9225091216069988,-2.469896519580255 L 0.9552353365685279,-2.4158524652160036 L 0.9660462872303633,-2.352730811155814 L 0.971375747081044,-2.2873386492596186 L 1.0092822145032632,-2.2451577190337484 L 1.0693943107626147,-2.2270810531123875 L 1.1181089052761926,-2.1890253783001716 L 1.1419184623028251,-2.1312879232882325 L 1.125930082750783,-2.07031083049259 L 1.1359668993505827,-2.011283588705361 L 1.1649246171116407,-1.9556785716909 L 1.189883600958951,-1.898417224857051 L 1.1952130608096316,-1.837440132061408 L 1.189883600958951,-1.7808781083663172 L 1.189883600958951,-1.7132784119198459 L 1.1848171606010547,-1.647995196264731 L 1.196493355009931,-1.5883538631997283 L 1.1952130608096316,-1.5246389206322173 L 1.1792246812575897,-1.4636618278365743 L 1.1554035050322895,-1.4059291856543072 L 1.1312595426014638,-1.3483302458961264 L 1.1087935611116106,-1.2900362636747802 L 1.0798358433505526,-1.2344312466603191 L 1.0433411311885354,-1.18194815494626 L 0.9993094246255586,-1.1325869885326023 L 0.9499482582118998,-1.0885552819696243 L 0.8977558853212502,-1.0513587124812813 L 0.857201957135347,-1.0011384407437522 L 0.8244757421738113,-0.9470943863794938 L 0.7955035720085823,-0.8914953557468487 L 0.7627918094512243,-0.8374453150007809 L 0.7262205939497338,-0.784993912007505 L 0.682265390726232,-0.7356010568730661 L 0.6420021813637348,-0.6846789278092075 L 0.609275966402199,-0.6306348734449491 L 0.5823251779813561,-0.5741985590790455 L 0.5610073385786335,-0.5154290008336786 L 0.5487822935223635,-0.4528930838501391 L 0.5450189590265915,-0.38685221159156435 L 0.5450189590265915,-0.3192525151450931 L 0.5503484188772721,-0.25386035324890766 L 0.5556778787279528,-0.1884681913527125 L 0.553440448936023,-0.1217952686709171 L 0.5069333889727189,-0.0859471284089744 L 0.5456333752330234,-0.03814692464552457 L 0.5783595901945597,0.015897129718734384 L 0.61430193708544,0.06860901861947631 L 0.6551175117190668,0.11930235049664484 L 0.6953807210815655,0.17022447956050468 L 0.7315500538004145,0.16862743730314944 L 0.7608331510046314,0.11315719686696894 L 0.8117552800684876,0.07289398750447405 L 0.8444814950300233,0.0188499331402157 L 0.8594570902167502,-0.04254666867530022 L 0.8701160099181116,-0.10573129602121928 L 0.8823641847069958,-0.16825763235581526 L 0.8967633091715148,-0.22989301616278132 L 0.9074222288728762,-0.29307764350870036 L 0.9240153715844462,-0.35380423520164334 L 0.9447284478276408,-0.41282429454970054 L 0.9660462872303633,-0.4715938527950674 L 0.9882775416647517,-0.5299850621462425 L 1.013466762225333,-0.5871510418109079 L 1.03111898838496,-0.6474389467759802 L 1.0412342201436329,-0.7108487770414595 L 1.0459881849905732,-0.7764793167732823 L 1.0463906948590704,-0.8439122881732327 L 1.0678114182191745,-0.9026392304881016 L 1.1118431247821465,-0.9520003969017543 L 1.164326216496196,-0.9884951090637617 L 1.2168093082102533,-1.024989821225777 L 1.2495355231717926,-1.079033875590039 L 1.2591665790177995,-1.1426442580851195 L 1.2697659866891386,-1.2058535361209983 L 1.2751549585698414,-1.2712210473272338 L 1.2804844184205222,-1.3366132092234289 L 1.2911433381218835,-1.399797836569348 L 1.2989214221223988,-1.4641757451335267 L 1.312461177524606,-1.5261670912611862 L 1.3231200972259674,-1.5893517186070956 L 1.3337790169273287,-1.6525363459530145 L 1.3391084767780093,-1.7179285078492097 L 1.34443793662869,-1.783320669745405 L 1.3497673964793706,-1.8487128316416 L 1.3659595472326256,-1.9096055196420798 L 1.3949172649936834,-1.965210536656541 L 1.423874982754742,-2.0208155536710035 L 1.4297092942395806,-2.0859985991733434 L 1.4137209146875385,-2.1469756919689864 L 1.3938924188469761,-2.2063621565168243 L 1.3762401926873489,-2.2666500614818963 L 1.3548194693272446,-2.3253770037967656 L 1.3333987459671404,-2.3841039461116336 L 1.312461177524606,-2.443031017746087 L 1.296472797972564,-2.5040081105417302 L 1.2974295396549609,-2.5712115116076655 L 1.3226187602155417,-2.62837749127233 L 1.362881969578036,-2.679299620336186 L 1.4138040986418838,-2.7195628296986727 L 1.4616043024053336,-2.767363033462121 L 1.4692019147255682,-2.8292119010773975 L 1.447781191365464,-2.887938843392266 L 1.4190503745382193,-2.9436378458508288 L 1.4711137952860178,-2.944548137231922 L 1.5189139990494682,-2.8967479334684723 L 1.551640214011004,-2.8427038791042145 L 1.5736047102079582,-2.7842021748732186 L 1.5895930897600004,-2.7232250820775756 L 1.6002520094613615,-2.6600404547316665 L 1.6109109291627228,-2.5968558273857476 L 1.6215698488640842,-2.5336712000398283 L 1.6349425877658967,-2.4716106734125654 L 1.6482171481174874,-2.4095094798982664 L 1.6627100456841966,-2.347912938182014 L 1.67282527744287,-2.284503107916534 L 1.6829405092015426,-2.2210932776510552 L 1.6908528269229328,-2.15677097051459 L 1.6961822867736134,-2.091378808618395 L 1.6961822867736134,-2.0237791121719333 L 1.6961822867736134,-1.9561794157254622 L 1.6908528269229328,-1.890787253829267 L 1.6826491485979476,-1.8265856322063527 L 1.6687654196387975,-1.7647367645910774 L 1.6435761990782163,-1.7075707849264115 L 1.6109109291627228,-1.6535014862975235 L 1.5781237691551453,-1.5994826761978949 L 1.5522868708052358,-1.542584973457618 L 1.5362984912531936,-1.481607880661975 L 1.528935587876748,-1.4170579986524823 L 1.5203101117011517,-1.3530310914198607 L 1.5049366271589253,-1.291799300771726 L 1.4883333525970677,-1.2310769058285749 L 1.4670155131943452,-1.1723073475832175 L 1.4456976737916225,-1.1135377893378604 L 1.4243798343888998,-1.054768231092484 L 1.401601507558888,-0.9966036265471855 L 1.3764122869983,-0.9394376468825135 L 1.3436860720367716,-0.8853935925182624 L 1.310959857075229,-0.8313495381539974 L 1.2804844184205222,-0.7763731817175918 L 1.2605814159540663,-0.7170175788246667 L 1.2504661841954001,-0.653607748559194 L 1.2431781994657576,-0.5890268342301204 L 1.253837119167119,-0.5460819323467281 L 1.3017133474666238,-0.5876067951154431 L 1.3541964391806853,-0.6241015072774627 L 1.4098014561951404,-0.6530592250385145 L 1.4638455105594055,-0.685785440000057 L 1.516886941620059,-0.7209322017390806 L 1.5690338962146073,-0.7582384206938452 L 1.6181728604011636,-0.8028065708870505 L 1.6622045669641423,-0.8521677373007099 L 1.698699279126148,-0.9046508290147575 L 1.733488505728378,-0.9578403559780964 L 1.767920206249696,-1.01117797509307 L 1.8027714837872266,-1.0643417997174498 L 1.8347482428913104,-1.118696288862274 L 1.8667250019953945,-1.1730507780070791 L 1.8988250660958383,-1.2273541925501028 L 1.9306785202035623,-1.2817597562967085 L 1.9605089988184319,-1.3370032639288232 L 1.989466716579484,-1.3926082809432772 L 2.018424434340535,-1.4482132979577322 L 2.0436136549011232,-1.5053792776224042 L 2.069244476321259,-1.5623623402218767 L 2.093992096022286,-1.6197112369517348 L 2.1154128193823833,-1.678438179266597 L 2.1331979945294273,-1.738671014957987 L 2.150717271701638,-1.7990139891967418 L 2.1683694978612715,-1.8593018941618207 L 2.1911561435393163,-1.9147312082915477 L 2.1918220528869146,-1.8641645537947262 L 2.1760987744354514,-1.8030776525278327 L 2.1598452937828307,-1.7422103682034595 L 2.1438569142307884,-1.681233275407807 L 2.122539074828066,-1.6224637171624499 L 2.097952875395989,-1.5650479579679504 L 2.07457393617194,-1.5071321352219922 L 2.0475744342748263,-1.4507159986386198 L 2.0186167165137747,-1.3951109816241658 L 1.9896589987527094,-1.3395059646096972 L 1.960701280991658,-1.283900947595242 L 1.9306785202035623,-1.2287370858471 L 1.8987017610994783,-1.1743825967022756 L 1.8662911333075354,-1.1202078218522709 L 1.833564918345993,-1.0661637674880058 L 1.8008387033844646,-1.0121197131237547 L 1.765465264832462,-0.959172174673293 L 1.7316177762609166,-0.9055925670454421 L 1.695123064098897,-0.8531094753313806 L 1.6548598547364124,-0.8021873462675346 L 1.6070596509729655,-0.7543871425040879 L 1.55552497927002,-0.7156027418883999 L 1.502093467544854,-0.6813977181800603 L 1.448049413180589,-0.6486715032185179 L 1.394005358816338,-0.6159452882569895 L 1.339961304452073,-0.5832190732954471 L 1.285917250087822,-0.5504928583339186 L 1.2365560836741674,-0.5064611517709448 L 1.205871980510993,-0.4515712270039326 L 1.1792246812575897,-0.3950092033088321 L 1.1572199247919532,-0.3365241754271595 L 1.1312595426014638,-0.27967762136839386 L 1.1068414836707905,-0.22219221609782883 L 1.0832944039453378,-0.16434603942793619 L 1.067306024393296,-0.10336894663228352 L 1.0566471046919346,-0.04018431928637416 L 1.0459881849905732,0.023000308059554598 L 1.0298858444740933,0.08393019667813663 L 0.9805246780604393,0.1279619032411099 L 0.9296025489965947,0.16822511260359327 L 0.877119457282547,0.20471982476559888 L 0.8234583564691637,0.23837057138343767 L 0.7624812636735304,0.25435895093547967 L 0.7574785893122846,0.29094640614871103 L 0.7741857326058598,0.35162577725445876 L 0.7795151924565404,0.41701793915066365 L 0.7294848122694727,0.42283642462631893 L 0.680123645855814,0.3788047180633408 L 0.6323234420923701,0.331004514299897 L 0.6243237590894303,0.3389932108489991 L 0.664586968451927,0.3899153399128571 L 0.7049027545470112,0.44081569098099216 L 0.7413448899764293,0.49332056069076274 L 0.7688562727551791,0.5495246692706216 L 0.7901741121579017,0.6082942275159982 L 0.8061624917099437,0.6692713203116314 L 0.8221508712619856,0.7302484131072841 L 0.832809790963347,0.7934330404531934 L 0.8472582469341917,0.8550479904811967 L 0.8594570902167502,0.9175947605947554 L 0.8701160099181116,0.9807793879406649 L 0.8754454697687922,1.0461715498368698 L 0.8839506767683922,1.1102482741933042 L 0.8914338493208341,1.174748339078984 L 0.8967633091715148,1.2401405009751694 L 0.8967633091715148,1.3077401974216503 L 0.8967633091715148,1.3753398938681118 L 0.8914338493208341,1.4407320557643166 L 0.9007132447148444,1.481514240899382 L 0.9221339680749419,1.4227872985845198 L 0.9287400682755987,1.3579239384355482 L 0.9287400682755987,1.2903242419890868 L 0.9336371773485816,1.224752994537057 L 0.9710586420012968,1.1866973197248474 L 1.0128704522734213,1.1858734511915268 L 1.0584631214865847,1.2314661204046902 L 1.0886238637960184,1.2865728283353564 L 1.1050730654072705,1.3473590423842243 L 1.1046122433480605,1.4107345484769183 L 1.0832743858714349,1.4694958149645725 L 1.1038207546292045,1.5166494468279395 L 1.125930082750783,1.5750911597115003 L 1.125930082750783,1.6382757870574096 L 1.1057416520948344,1.6975131617231634 L 1.0496474448201307,1.725289869723341 L 1.0670289554613546,1.7516601000448029 L 1.112621624674518,1.7972527692579663 L 1.1365890024521443,1.8549248527744293 L 1.1187271763774798,1.9064915046464832 L 1.1312595426014638,1.9445235262115927 L 1.1569619831096294,2.001476923213498 L 1.1685657615562284,2.064270177252603 L 1.157906841854867,2.1274548045985315 L 1.1453185714802658,2.1870235260593187 L 1.1632363017055476,2.247201455639541 L 1.1632363017055476,2.314801152086003 L 1.1470398394543269,2.3756920542055604 L 1.1180821216932748,2.431297071220015 L 1.0815874095312692,2.483780162934063 L 1.0309409292497944,2.5247088473254395 L 0.9719383381525497,2.5039535989942223 L 0.9505176147924382,2.540237519763364 L 0.9393989879769601,2.603231730187887 L 0.9227501568741384,2.663935254993916 L 0.8937924391130871,2.7195402720083712 L 0.8572977269510633,2.7720233637224365 L 0.807936560537413,2.8160550702854064 L 0.7521093802112343,2.844476438366279 L 0.7017734909841016,2.867994474056772 L 0.7651833212495737,2.8641377694239263 L 0.8224314931673893,2.8391469785155983 L 0.8763933552784973,2.8062223339018093 L 0.9204250618414712,2.7568611674881547 L 0.9500579076783214,2.701535797679035 L 0.971375747081044,2.6427662394336586 L 0.9767052069317247,2.577374077537473 L 1.0016928861813408,2.5443670667243747 L 1.003352506185128,2.6112793260568816 L 0.9926935864837667,2.6744639534027908 L 0.9746664309129036,2.734596557520806 L 0.938171718750898,2.787079649234854 L 0.8930534069991878,2.8338175186649175 L 0.8400959578236731,2.8691670306100368 L 0.7813690155087969,2.8905877539701477 L 0.7226420731939354,2.9120084773302453 L 0.7208911340990531,2.9788829110567363 L 0.7024116096765893,3.0388281378612043 L 0.6621484003140974,3.0897502669250576 L 0.6081043459498282,3.122476481886604 L 0.5445601268517793,3.1322672703030343 L 0.48284564806907243,3.118059098001641 L 0.43310030216229767,3.0804303743959327 L 0.46780117460509935,3.078972671796228 L 0.5265707328504565,3.1002905111989505 L 0.5919628947466613,3.0949610513482697 L 0.6463060525259157,3.0629569359077937 L 0.679032267487458,3.0089128815435284 L 0.6942438348456499,2.947614022601786 L 0.6586699630755898,2.9031004967237664 L 0.5932778011793849,2.9084299565744467 L 0.5323007083837517,2.9244183361264886 L 0.4788598180875388,2.9586007179614575 L 0.4263767263734912,2.995095430123463 L 0.3852256205013398,3.0256780732894213 L 0.3424994847007265,3.0523804154355263 L 0.34782894455140717,3.1177725773317313 L 0.35797535628525595,3.1807449169266726 L 0.34782894455140717,3.24414183202355 L 0.31513390956504567,3.298198801556412 L 0.2657727431513936,3.3422305081193837 L 0.20612741166343476,3.3614340438823027 L 0.15052639307192958,3.340003667475287 L 0.12932109067350026,3.2811874948764626 L 0.12932109067350026,3.2180028675305534 L 0.10069163989344809,3.16226187788047 L 0.049769510829604006,3.121998668517987 L 0.020117866106612082,3.1269378104523535 L 0.06114670641324105,3.176011542907069 L 0.09201487171873565,3.2308252266384128 L 0.09446900720586025,3.2950263901870103 L 0.07602649216669367,3.3549869467799747 L 0.04404973306260974,3.409341435924799 L -0.003709637678750539,3.457158553279789 L -0.05619272939281448,3.493653265441811 Z" fill="none" stroke="black" stroke-width="0.05"/>
</svg>